<?xml version="1.0" encoding="utf-8"?>
<!-- Generator: Adobe Illustrator 18.1.1, SVG Export Plug-In . SVG Version: 6.00 Build 0)  -->
<!DOCTYPE svg PUBLIC "-//W3C//DTD SVG 1.1//EN" "http://www.w3.org/Graphics/SVG/1.1/DTD/svg11.dtd">
<svg version="1.1" id="Layer_1" xmlns="http://www.w3.org/2000/svg" xmlns:xlink="http://www.w3.org/1999/xlink" x="0px" y="0px"
	 viewBox="0 0 139.2 304.2" enable-background="new 0 0 139.2 304.2" xml:space="preserve">
<circle fill="#010101" cx="69.6" cy="24.8" r="24.8"/>
<path fill="#010101" d="M66.2,206.4v86.1c-0.1,15.6-23.4,15.6-23.6,0v-86.1H12.1l32.8-115h-5.3l-19,65.5
	c-4.8,14.5-24.4,8.6-19.8-6.9L22,79.2c2.5-8.1,12.7-22.5,30.5-22.9h16h18.3c17.3,0.4,27.5,14.8,30.5,22.9l21.3,70.8
	c4.3,15.4-15.1,21.7-19.8,6.9l-19-65.5h-6.1l33.5,115H95.9v86.1c0.2,15.6-22.9,15.6-22.9,0v-86.1H66.2z"/>
</svg>
